<svg aria-roledescription="er" viewBox="0 0 430.55792236328125 854" style="max-width: 430.558px; background-color: white;" xmlns:xlink="http://www.w3.org/1999/xlink" xmlns="http://www.w3.org/2000/svg" width="100%" id="mermaid-0"><style>#mermaid-0{font-family:"trebuchet ms",verdana,arial,sans-serif;font-size:16px;fill:#000000;}#mermaid-0 .error-icon{fill:#552222;}#mermaid-0 .error-text{fill:#552222;stroke:#552222;}#mermaid-0 .edge-thickness-normal{stroke-width:2px;}#mermaid-0 .edge-thickness-thick{stroke-width:3.5px;}#mermaid-0 .edge-pattern-solid{stroke-dasharray:0;}#mermaid-0 .edge-pattern-dashed{stroke-dasharray:3;}#mermaid-0 .edge-pattern-dotted{stroke-dasharray:2;}#mermaid-0 .marker{fill:#000000;stroke:#000000;}#mermaid-0 .marker.cross{stroke:#000000;}#mermaid-0 svg{font-family:"trebuchet ms",verdana,arial,sans-serif;font-size:16px;}#mermaid-0 .entityBox{fill:#cde498;stroke:#13540c;}#mermaid-0 .attributeBoxOdd{fill:#ffffff;stroke:#13540c;}#mermaid-0 .attributeBoxEven{fill:#f2f2f2;stroke:#13540c;}#mermaid-0 .relationshipLabelBox{fill:hsl(78.1578947368, 58.4615384615%, 84.5098039216%);opacity:0.7;background-color:hsl(78.1578947368, 58.4615384615%, 84.5098039216%);}#mermaid-0 .relationshipLabelBox rect{opacity:0.5;}#mermaid-0 .relationshipLine{stroke:#000000;}#mermaid-0 .entityTitleText{text-anchor:middle;font-size:18px;fill:#000000;}#mermaid-0 :root{--mermaid-font-family:"trebuchet ms",verdana,arial,sans-serif;}</style><g/><defs><marker orient="auto" markerHeight="18" markerWidth="18" refY="9" refX="0" id="ONLY_ONE_START"><path d="M9,0 L9,18 M15,0 L15,18" fill="none" stroke="gray"/></marker></defs><defs><marker orient="auto" markerHeight="18" markerWidth="18" refY="9" refX="18" id="ONLY_ONE_END"><path d="M3,0 L3,18 M9,0 L9,18" fill="none" stroke="gray"/></marker></defs><defs><marker orient="auto" markerHeight="18" markerWidth="30" refY="9" refX="0" id="ZERO_OR_ONE_START"><circle r="6" cy="9" cx="21" fill="white" stroke="gray"/><path d="M9,0 L9,18" fill="none" stroke="gray"/></marker></defs><defs><marker orient="auto" markerHeight="18" markerWidth="30" refY="9" refX="30" id="ZERO_OR_ONE_END"><circle r="6" cy="9" cx="9" fill="white" stroke="gray"/><path d="M21,0 L21,18" fill="none" stroke="gray"/></marker></defs><defs><marker orient="auto" markerHeight="36" markerWidth="45" refY="18" refX="18" id="ONE_OR_MORE_START"><path d="M0,18 Q 18,0 36,18 Q 18,36 0,18 M42,9 L42,27" fill="none" stroke="gray"/></marker></defs><defs><marker orient="auto" markerHeight="36" markerWidth="45" refY="18" refX="27" id="ONE_OR_MORE_END"><path d="M3,9 L3,27 M9,18 Q27,0 45,18 Q27,36 9,18" fill="none" stroke="gray"/></marker></defs><defs><marker orient="auto" markerHeight="36" markerWidth="57" refY="18" refX="18" id="ZERO_OR_MORE_START"><circle r="6" cy="18" cx="48" fill="white" stroke="gray"/><path d="M0,18 Q18,0 36,18 Q18,36 0,18" fill="none" stroke="gray"/></marker></defs><defs><marker orient="auto" markerHeight="36" markerWidth="57" refY="18" refX="39" id="ZERO_OR_MORE_END"><circle r="6" cy="18" cx="9" fill="white" stroke="gray"/><path d="M21,18 Q39,0 57,18 Q39,36 21,18" fill="none" stroke="gray"/></marker></defs><path style="stroke: gray; fill: none;" marker-start="url(#ZERO_OR_MORE_START)" marker-end="url(#ZERO_OR_ONE_END)" d="M231.49276733398438,578L231.49276733398438,586.3333333333334C231.49276733398438,594.6666666666666,231.49276733398438,611.3333333333334,236.9131193558375,628C242.33347137769064,644.6666666666666,253.17417542139688,661.3333333333334,258.59452744325,669.6666666666666L264.01487946510315,678" class="er relationshipLine"/><path style="stroke: gray; fill: none;" marker-start="url(#ZERO_OR_MORE_START)" marker-end="url(#ONLY_ONE_END)" d="M267.23341558733557,154L275.1527420543877,162.33333333333334C283.07206852143986,170.66666666666666,298.91072145554415,187.33333333333334,306.8300479225963,209.5C314.74937438964844,231.66666666666666,314.74937438964844,259.3333333333333,314.74937438964844,273.1666666666667L314.74937438964844,287" class="er relationshipLine"/><path style="stroke: gray; fill: none;" marker-start="url(#ZERO_OR_MORE_START)" marker-end="url(#ONLY_ONE_END)" d="M139.89064599713709,154L131.97131953008494,162.33333333333334C124.0519930630328,170.66666666666666,108.21334012892851,187.33333333333334,100.29401366187636,204C92.37468719482422,220.66666666666666,92.37468719482422,237.33333333333334,92.37468719482422,245.66666666666666L92.37468719482422,254" class="er relationshipLine"/><path style="stroke: gray; fill: none;" marker-start="url(#ZERO_OR_MORE_START)" marker-end="url(#ONLY_ONE_END)" d="M332.8144872413491,333L343.67973627534303,346.8333333333333C354.5449853093369,360.6666666666667,376.2754833773247,388.3333333333333,387.1407324113186,419.8333333333333C398.0059814453125,451.3333333333333,398.0059814453125,486.6666666666667,398.0059814453125,522C398.0059814453125,557.3333333333334,398.0059814453125,592.6666666666666,392.58562942345935,618.6666666666666C387.16527740160626,644.6666666666666,376.32457335789996,661.3333333333334,370.9042213360469,669.6666666666666L365.4838693141937,678" class="er relationshipLine"/><path style="stroke: gray; fill: none;" marker-start="url(#ZERO_OR_MORE_START)" marker-end="url(#ONLY_ONE_END)" d="M296.68426153794775,333L285.81901250395384,346.8333333333333C274.95376346995994,360.6666666666667,253.22326540197218,388.3333333333333,242.35801636797828,410.5C231.49276733398438,432.6666666666667,231.49276733398438,449.3333333333333,231.49276733398438,457.6666666666667L231.49276733398438,466" class="er relationshipLine"/><g transform="translate(164.97955322265625,466 )" id="entity-Pool-9142e1f4-6a29-4fbc-95ef-7c75db2aa28a"><rect height="112" width="133.02642822265625" y="0" x="0" class="er entityBox"/><text style="dominant-baseline: middle; text-anchor: middle; font-size: 12px;" transform="translate(66.51321411132812,12)" y="0" x="0" id="text-entity-Pool-9142e1f4-6a29-4fbc-95ef-7c75db2aa28a" class="er entityLabel">Pool</text><rect height="22" width="54.095550537109375" y="24" x="0" class="er attributeBoxOdd"/><text style="dominant-baseline: middle; font-size: 10.2px;" transform="translate(5,35)" y="0" x="0" id="text-entity-Pool-9142e1f4-6a29-4fbc-95ef-7c75db2aa28a-attr-1-type" class="er entityLabel">String</text><rect height="22" width="56.243194580078125" y="24" x="54.095550537109375" class="er attributeBoxOdd"/><text style="dominant-baseline: middle; font-size: 10.2px;" transform="translate(59.095550537109375,35)" y="0" x="0" id="text-entity-Pool-9142e1f4-6a29-4fbc-95ef-7c75db2aa28a-attr-1-name" class="er entityLabel">id</text><rect height="22" width="22.68768310546875" y="24" x="110.3387451171875" class="er attributeBoxOdd"/><text style="dominant-baseline: middle; font-size: 10.2px;" transform="translate(115.3387451171875,35)" y="0" x="0" id="text-entity-Pool-9142e1f4-6a29-4fbc-95ef-7c75db2aa28a-attr-1-key" class="er entityLabel">PK</text><rect height="22" width="54.095550537109375" y="46" x="0" class="er attributeBoxEven"/><text style="dominant-baseline: middle; font-size: 10.2px;" transform="translate(5,57)" y="0" x="0" id="text-entity-Pool-9142e1f4-6a29-4fbc-95ef-7c75db2aa28a-attr-2-type" class="er entityLabel">String</text><rect height="22" width="56.243194580078125" y="46" x="54.095550537109375" class="er attributeBoxEven"/><text style="dominant-baseline: middle; font-size: 10.2px;" transform="translate(59.095550537109375,57)" y="0" x="0" id="text-entity-Pool-9142e1f4-6a29-4fbc-95ef-7c75db2aa28a-attr-2-name" class="er entityLabel">title</text><rect height="22" width="22.68768310546875" y="46" x="110.3387451171875" class="er attributeBoxEven"/><text style="dominant-baseline: middle; font-size: 10.2px;" transform="translate(115.3387451171875,57)" y="0" x="0" id="text-entity-Pool-9142e1f4-6a29-4fbc-95ef-7c75db2aa28a-attr-2-key" class="er entityLabel"/><rect height="22" width="54.095550537109375" y="68" x="0" class="er attributeBoxOdd"/><text style="dominant-baseline: middle; font-size: 10.2px;" transform="translate(5,79)" y="0" x="0" id="text-entity-Pool-9142e1f4-6a29-4fbc-95ef-7c75db2aa28a-attr-3-type" class="er entityLabel">String</text><rect height="22" width="56.243194580078125" y="68" x="54.095550537109375" class="er attributeBoxOdd"/><text style="dominant-baseline: middle; font-size: 10.2px;" transform="translate(59.095550537109375,79)" y="0" x="0" id="text-entity-Pool-9142e1f4-6a29-4fbc-95ef-7c75db2aa28a-attr-3-name" class="er entityLabel">code</text><rect height="22" width="22.68768310546875" y="68" x="110.3387451171875" class="er attributeBoxOdd"/><text style="dominant-baseline: middle; font-size: 10.2px;" transform="translate(115.3387451171875,79)" y="0" x="0" id="text-entity-Pool-9142e1f4-6a29-4fbc-95ef-7c75db2aa28a-attr-3-key" class="er entityLabel"/><rect height="22" width="54.095550537109375" y="90" x="0" class="er attributeBoxEven"/><text style="dominant-baseline: middle; font-size: 10.2px;" transform="translate(5,101)" y="0" x="0" id="text-entity-Pool-9142e1f4-6a29-4fbc-95ef-7c75db2aa28a-attr-4-type" class="er entityLabel">DateTime</text><rect height="22" width="56.243194580078125" y="90" x="54.095550537109375" class="er attributeBoxEven"/><text style="dominant-baseline: middle; font-size: 10.2px;" transform="translate(59.095550537109375,101)" y="0" x="0" id="text-entity-Pool-9142e1f4-6a29-4fbc-95ef-7c75db2aa28a-attr-4-name" class="er entityLabel">createdAt</text><rect height="22" width="22.68768310546875" y="90" x="110.3387451171875" class="er attributeBoxEven"/><text style="dominant-baseline: middle; font-size: 10.2px;" transform="translate(115.3387451171875,101)" y="0" x="0" id="text-entity-Pool-9142e1f4-6a29-4fbc-95ef-7c75db2aa28a-attr-4-key" class="er entityLabel"/></g><g transform="translate(224.62989044189453,678 )" id="entity-User-a689f029-d9c9-4216-8080-5e843fb700e1"><rect height="156" width="180.2389678955078" y="0" x="0" class="er entityBox"/><text style="dominant-baseline: middle; text-anchor: middle; font-size: 12px;" transform="translate(90.1194839477539,12)" y="0" x="0" id="text-entity-User-a689f029-d9c9-4216-8080-5e843fb700e1" class="er entityLabel">User</text><rect height="22" width="54.095550537109375" y="24" x="0" class="er attributeBoxOdd"/><text style="dominant-baseline: middle; font-size: 10.2px;" transform="translate(5,35)" y="0" x="0" id="text-entity-User-a689f029-d9c9-4216-8080-5e843fb700e1-attr-1-type" class="er entityLabel">String</text><rect height="22" width="56.243194580078125" y="24" x="54.095550537109375" class="er attributeBoxOdd"/><text style="dominant-baseline: middle; font-size: 10.2px;" transform="translate(59.095550537109375,35)" y="0" x="0" id="text-entity-User-a689f029-d9c9-4216-8080-5e843fb700e1-attr-1-name" class="er entityLabel">id</text><rect height="22" width="22.68768310546875" y="24" x="110.3387451171875" class="er attributeBoxOdd"/><text style="dominant-baseline: middle; font-size: 10.2px;" transform="translate(115.3387451171875,35)" y="0" x="0" id="text-entity-User-a689f029-d9c9-4216-8080-5e843fb700e1-attr-1-key" class="er entityLabel">PK</text><rect height="22" width="47.21253967285156" y="24" x="133.02642822265625" class="er attributeBoxOdd"/><text style="dominant-baseline: middle; font-size: 10.2px;" transform="translate(138.02642822265625,35)" y="0" x="0" id="text-entity-User-a689f029-d9c9-4216-8080-5e843fb700e1-attr-1-comment" class="er entityLabel"/><rect height="22" width="54.095550537109375" y="46" x="0" class="er attributeBoxEven"/><text style="dominant-baseline: middle; font-size: 10.2px;" transform="translate(5,57)" y="0" x="0" id="text-entity-User-a689f029-d9c9-4216-8080-5e843fb700e1-attr-2-type" class="er entityLabel">String</text><rect height="22" width="56.243194580078125" y="46" x="54.095550537109375" class="er attributeBoxEven"/><text style="dominant-baseline: middle; font-size: 10.2px;" transform="translate(59.095550537109375,57)" y="0" x="0" id="text-entity-User-a689f029-d9c9-4216-8080-5e843fb700e1-attr-2-name" class="er entityLabel">name</text><rect height="22" width="22.68768310546875" y="46" x="110.3387451171875" class="er attributeBoxEven"/><text style="dominant-baseline: middle; font-size: 10.2px;" transform="translate(115.3387451171875,57)" y="0" x="0" id="text-entity-User-a689f029-d9c9-4216-8080-5e843fb700e1-attr-2-key" class="er entityLabel"/><rect height="22" width="47.21253967285156" y="46" x="133.02642822265625" class="er attributeBoxEven"/><text style="dominant-baseline: middle; font-size: 10.2px;" transform="translate(138.02642822265625,57)" y="0" x="0" id="text-entity-User-a689f029-d9c9-4216-8080-5e843fb700e1-attr-2-comment" class="er entityLabel"/><rect height="22" width="54.095550537109375" y="68" x="0" class="er attributeBoxOdd"/><text style="dominant-baseline: middle; font-size: 10.2px;" transform="translate(5,79)" y="0" x="0" id="text-entity-User-a689f029-d9c9-4216-8080-5e843fb700e1-attr-3-type" class="er entityLabel">String</text><rect height="22" width="56.243194580078125" y="68" x="54.095550537109375" class="er attributeBoxOdd"/><text style="dominant-baseline: middle; font-size: 10.2px;" transform="translate(59.095550537109375,79)" y="0" x="0" id="text-entity-User-a689f029-d9c9-4216-8080-5e843fb700e1-attr-3-name" class="er entityLabel">email</text><rect height="22" width="22.68768310546875" y="68" x="110.3387451171875" class="er attributeBoxOdd"/><text style="dominant-baseline: middle; font-size: 10.2px;" transform="translate(115.3387451171875,79)" y="0" x="0" id="text-entity-User-a689f029-d9c9-4216-8080-5e843fb700e1-attr-3-key" class="er entityLabel"/><rect height="22" width="47.21253967285156" y="68" x="133.02642822265625" class="er attributeBoxOdd"/><text style="dominant-baseline: middle; font-size: 10.2px;" transform="translate(138.02642822265625,79)" y="0" x="0" id="text-entity-User-a689f029-d9c9-4216-8080-5e843fb700e1-attr-3-comment" class="er entityLabel"/><rect height="22" width="54.095550537109375" y="90" x="0" class="er attributeBoxEven"/><text style="dominant-baseline: middle; font-size: 10.2px;" transform="translate(5,101)" y="0" x="0" id="text-entity-User-a689f029-d9c9-4216-8080-5e843fb700e1-attr-4-type" class="er entityLabel">String</text><rect height="22" width="56.243194580078125" y="90" x="54.095550537109375" class="er attributeBoxEven"/><text style="dominant-baseline: middle; font-size: 10.2px;" transform="translate(59.095550537109375,101)" y="0" x="0" id="text-entity-User-a689f029-d9c9-4216-8080-5e843fb700e1-attr-4-name" class="er entityLabel">googleId</text><rect height="22" width="22.68768310546875" y="90" x="110.3387451171875" class="er attributeBoxEven"/><text style="dominant-baseline: middle; font-size: 10.2px;" transform="translate(115.3387451171875,101)" y="0" x="0" id="text-entity-User-a689f029-d9c9-4216-8080-5e843fb700e1-attr-4-key" class="er entityLabel"/><rect height="22" width="47.21253967285156" y="90" x="133.02642822265625" class="er attributeBoxEven"/><text style="dominant-baseline: middle; font-size: 10.2px;" transform="translate(138.02642822265625,101)" y="0" x="0" id="text-entity-User-a689f029-d9c9-4216-8080-5e843fb700e1-attr-4-comment" class="er entityLabel">nullable</text><rect height="22" width="54.095550537109375" y="112" x="0" class="er attributeBoxOdd"/><text style="dominant-baseline: middle; font-size: 10.2px;" transform="translate(5,123)" y="0" x="0" id="text-entity-User-a689f029-d9c9-4216-8080-5e843fb700e1-attr-5-type" class="er entityLabel">String</text><rect height="22" width="56.243194580078125" y="112" x="54.095550537109375" class="er attributeBoxOdd"/><text style="dominant-baseline: middle; font-size: 10.2px;" transform="translate(59.095550537109375,123)" y="0" x="0" id="text-entity-User-a689f029-d9c9-4216-8080-5e843fb700e1-attr-5-name" class="er entityLabel">avatarUrl</text><rect height="22" width="22.68768310546875" y="112" x="110.3387451171875" class="er attributeBoxOdd"/><text style="dominant-baseline: middle; font-size: 10.2px;" transform="translate(115.3387451171875,123)" y="0" x="0" id="text-entity-User-a689f029-d9c9-4216-8080-5e843fb700e1-attr-5-key" class="er entityLabel"/><rect height="22" width="47.21253967285156" y="112" x="133.02642822265625" class="er attributeBoxOdd"/><text style="dominant-baseline: middle; font-size: 10.2px;" transform="translate(138.02642822265625,123)" y="0" x="0" id="text-entity-User-a689f029-d9c9-4216-8080-5e843fb700e1-attr-5-comment" class="er entityLabel">nullable</text><rect height="22" width="54.095550537109375" y="134" x="0" class="er attributeBoxEven"/><text style="dominant-baseline: middle; font-size: 10.2px;" transform="translate(5,145)" y="0" x="0" id="text-entity-User-a689f029-d9c9-4216-8080-5e843fb700e1-attr-6-type" class="er entityLabel">DateTime</text><rect height="22" width="56.243194580078125" y="134" x="54.095550537109375" class="er attributeBoxEven"/><text style="dominant-baseline: middle; font-size: 10.2px;" transform="translate(59.095550537109375,145)" y="0" x="0" id="text-entity-User-a689f029-d9c9-4216-8080-5e843fb700e1-attr-6-name" class="er entityLabel">createdAt</text><rect height="22" width="22.68768310546875" y="134" x="110.3387451171875" class="er attributeBoxEven"/><text style="dominant-baseline: middle; font-size: 10.2px;" transform="translate(115.3387451171875,145)" y="0" x="0" id="text-entity-User-a689f029-d9c9-4216-8080-5e843fb700e1-attr-6-key" class="er entityLabel"/><rect height="22" width="47.21253967285156" y="134" x="133.02642822265625" class="er attributeBoxEven"/><text style="dominant-baseline: middle; font-size: 10.2px;" transform="translate(138.02642822265625,145)" y="0" x="0" id="text-entity-User-a689f029-d9c9-4216-8080-5e843fb700e1-attr-6-comment" class="er entityLabel"/></g><g transform="translate(20,254 )" id="entity-Race-567d7924-7f2a-41a9-8c58-6ee509a4ce6e"><rect height="112" width="144.74937438964844" y="0" x="0" class="er entityBox"/><text style="dominant-baseline: middle; text-anchor: middle; font-size: 12px;" transform="translate(72.37468719482422,12)" y="0" x="0" id="text-entity-Race-567d7924-7f2a-41a9-8c58-6ee509a4ce6e" class="er entityLabel">Race</text><rect height="22" width="54.095550537109375" y="24" x="0" class="er attributeBoxOdd"/><text style="dominant-baseline: middle; font-size: 10.2px;" transform="translate(5,35)" y="0" x="0" id="text-entity-Race-567d7924-7f2a-41a9-8c58-6ee509a4ce6e-attr-1-type" class="er entityLabel">String</text><rect height="22" width="67.96614074707031" y="24" x="54.095550537109375" class="er attributeBoxOdd"/><text style="dominant-baseline: middle; font-size: 10.2px;" transform="translate(59.095550537109375,35)" y="0" x="0" id="text-entity-Race-567d7924-7f2a-41a9-8c58-6ee509a4ce6e-attr-1-name" class="er entityLabel">id</text><rect height="22" width="22.68768310546875" y="24" x="122.06169128417969" class="er attributeBoxOdd"/><text style="dominant-baseline: middle; font-size: 10.2px;" transform="translate(127.06169128417969,35)" y="0" x="0" id="text-entity-Race-567d7924-7f2a-41a9-8c58-6ee509a4ce6e-attr-1-key" class="er entityLabel">PK</text><rect height="22" width="54.095550537109375" y="46" x="0" class="er attributeBoxEven"/><text style="dominant-baseline: middle; font-size: 10.2px;" transform="translate(5,57)" y="0" x="0" id="text-entity-Race-567d7924-7f2a-41a9-8c58-6ee509a4ce6e-attr-2-type" class="er entityLabel">DateTime</text><rect height="22" width="67.96614074707031" y="46" x="54.095550537109375" class="er attributeBoxEven"/><text style="dominant-baseline: middle; font-size: 10.2px;" transform="translate(59.095550537109375,57)" y="0" x="0" id="text-entity-Race-567d7924-7f2a-41a9-8c58-6ee509a4ce6e-attr-2-name" class="er entityLabel">date</text><rect height="22" width="22.68768310546875" y="46" x="122.06169128417969" class="er attributeBoxEven"/><text style="dominant-baseline: middle; font-size: 10.2px;" transform="translate(127.06169128417969,57)" y="0" x="0" id="text-entity-Race-567d7924-7f2a-41a9-8c58-6ee509a4ce6e-attr-2-key" class="er entityLabel"/><rect height="22" width="54.095550537109375" y="68" x="0" class="er attributeBoxOdd"/><text style="dominant-baseline: middle; font-size: 10.2px;" transform="translate(5,79)" y="0" x="0" id="text-entity-Race-567d7924-7f2a-41a9-8c58-6ee509a4ce6e-attr-3-type" class="er entityLabel">String</text><rect height="22" width="67.96614074707031" y="68" x="54.095550537109375" class="er attributeBoxOdd"/><text style="dominant-baseline: middle; font-size: 10.2px;" transform="translate(59.095550537109375,79)" y="0" x="0" id="text-entity-Race-567d7924-7f2a-41a9-8c58-6ee509a4ce6e-attr-3-name" class="er entityLabel">name</text><rect height="22" width="22.68768310546875" y="68" x="122.06169128417969" class="er attributeBoxOdd"/><text style="dominant-baseline: middle; font-size: 10.2px;" transform="translate(127.06169128417969,79)" y="0" x="0" id="text-entity-Race-567d7924-7f2a-41a9-8c58-6ee509a4ce6e-attr-3-key" class="er entityLabel"/><rect height="22" width="54.095550537109375" y="90" x="0" class="er attributeBoxEven"/><text style="dominant-baseline: middle; font-size: 10.2px;" transform="translate(5,101)" y="0" x="0" id="text-entity-Race-567d7924-7f2a-41a9-8c58-6ee509a4ce6e-attr-4-type" class="er entityLabel">String</text><rect height="22" width="67.96614074707031" y="90" x="54.095550537109375" class="er attributeBoxEven"/><text style="dominant-baseline: middle; font-size: 10.2px;" transform="translate(59.095550537109375,101)" y="0" x="0" id="text-entity-Race-567d7924-7f2a-41a9-8c58-6ee509a4ce6e-attr-4-name" class="er entityLabel">countryCode</text><rect height="22" width="22.68768310546875" y="90" x="122.06169128417969" class="er attributeBoxEven"/><text style="dominant-baseline: middle; font-size: 10.2px;" transform="translate(127.06169128417969,101)" y="0" x="0" id="text-entity-Race-567d7924-7f2a-41a9-8c58-6ee509a4ce6e-attr-4-key" class="er entityLabel"/></g><g transform="translate(108.62698745727539,20 )" id="entity-Guess-a0342822-8ef3-47eb-81e4-0c8065d5697e"><rect height="134" width="189.87008666992188" y="0" x="0" class="er entityBox"/><text style="dominant-baseline: middle; text-anchor: middle; font-size: 12px;" transform="translate(94.93504333496094,12)" y="0" x="0" id="text-entity-Guess-a0342822-8ef3-47eb-81e4-0c8065d5697e" class="er entityLabel">Guess</text><rect height="22" width="54.095550537109375" y="24" x="0" class="er attributeBoxOdd"/><text style="dominant-baseline: middle; font-size: 10.2px;" transform="translate(5,35)" y="0" x="0" id="text-entity-Guess-a0342822-8ef3-47eb-81e4-0c8065d5697e-attr-1-type" class="er entityLabel">String</text><rect height="22" width="65.87431335449219" y="24" x="54.095550537109375" class="er attributeBoxOdd"/><text style="dominant-baseline: middle; font-size: 10.2px;" transform="translate(59.095550537109375,35)" y="0" x="0" id="text-entity-Guess-a0342822-8ef3-47eb-81e4-0c8065d5697e-attr-1-name" class="er entityLabel">id</text><rect height="22" width="22.68768310546875" y="24" x="119.96986389160156" class="er attributeBoxOdd"/><text style="dominant-baseline: middle; font-size: 10.2px;" transform="translate(124.96986389160156,35)" y="0" x="0" id="text-entity-Guess-a0342822-8ef3-47eb-81e4-0c8065d5697e-attr-1-key" class="er entityLabel">PK</text><rect height="22" width="47.21253967285156" y="24" x="142.6575469970703" class="er attributeBoxOdd"/><text style="dominant-baseline: middle; font-size: 10.2px;" transform="translate(147.6575469970703,35)" y="0" x="0" id="text-entity-Guess-a0342822-8ef3-47eb-81e4-0c8065d5697e-attr-1-comment" class="er entityLabel"/><rect height="22" width="54.095550537109375" y="46" x="0" class="er attributeBoxEven"/><text style="dominant-baseline: middle; font-size: 10.2px;" transform="translate(5,57)" y="0" x="0" id="text-entity-Guess-a0342822-8ef3-47eb-81e4-0c8065d5697e-attr-2-type" class="er entityLabel">String</text><rect height="22" width="65.87431335449219" y="46" x="54.095550537109375" class="er attributeBoxEven"/><text style="dominant-baseline: middle; font-size: 10.2px;" transform="translate(59.095550537109375,57)" y="0" x="0" id="text-entity-Guess-a0342822-8ef3-47eb-81e4-0c8065d5697e-attr-2-name" class="er entityLabel">Winner</text><rect height="22" width="22.68768310546875" y="46" x="119.96986389160156" class="er attributeBoxEven"/><text style="dominant-baseline: middle; font-size: 10.2px;" transform="translate(124.96986389160156,57)" y="0" x="0" id="text-entity-Guess-a0342822-8ef3-47eb-81e4-0c8065d5697e-attr-2-key" class="er entityLabel"/><rect height="22" width="47.21253967285156" y="46" x="142.6575469970703" class="er attributeBoxEven"/><text style="dominant-baseline: middle; font-size: 10.2px;" transform="translate(147.6575469970703,57)" y="0" x="0" id="text-entity-Guess-a0342822-8ef3-47eb-81e4-0c8065d5697e-attr-2-comment" class="er entityLabel"/><rect height="22" width="54.095550537109375" y="68" x="0" class="er attributeBoxOdd"/><text style="dominant-baseline: middle; font-size: 10.2px;" transform="translate(5,79)" y="0" x="0" id="text-entity-Guess-a0342822-8ef3-47eb-81e4-0c8065d5697e-attr-3-type" class="er entityLabel">String</text><rect height="22" width="65.87431335449219" y="68" x="54.095550537109375" class="er attributeBoxOdd"/><text style="dominant-baseline: middle; font-size: 10.2px;" transform="translate(59.095550537109375,79)" y="0" x="0" id="text-entity-Guess-a0342822-8ef3-47eb-81e4-0c8065d5697e-attr-3-name" class="er entityLabel">polePosition</text><rect height="22" width="22.68768310546875" y="68" x="119.96986389160156" class="er attributeBoxOdd"/><text style="dominant-baseline: middle; font-size: 10.2px;" transform="translate(124.96986389160156,79)" y="0" x="0" id="text-entity-Guess-a0342822-8ef3-47eb-81e4-0c8065d5697e-attr-3-key" class="er entityLabel"/><rect height="22" width="47.21253967285156" y="68" x="142.6575469970703" class="er attributeBoxOdd"/><text style="dominant-baseline: middle; font-size: 10.2px;" transform="translate(147.6575469970703,79)" y="0" x="0" id="text-entity-Guess-a0342822-8ef3-47eb-81e4-0c8065d5697e-attr-3-comment" class="er entityLabel">nullable</text><rect height="22" width="54.095550537109375" y="90" x="0" class="er attributeBoxEven"/><text style="dominant-baseline: middle; font-size: 10.2px;" transform="translate(5,101)" y="0" x="0" id="text-entity-Guess-a0342822-8ef3-47eb-81e4-0c8065d5697e-attr-4-type" class="er entityLabel">String</text><rect height="22" width="65.87431335449219" y="90" x="54.095550537109375" class="er attributeBoxEven"/><text style="dominant-baseline: middle; font-size: 10.2px;" transform="translate(59.095550537109375,101)" y="0" x="0" id="text-entity-Guess-a0342822-8ef3-47eb-81e4-0c8065d5697e-attr-4-name" class="er entityLabel">fastestLap</text><rect height="22" width="22.68768310546875" y="90" x="119.96986389160156" class="er attributeBoxEven"/><text style="dominant-baseline: middle; font-size: 10.2px;" transform="translate(124.96986389160156,101)" y="0" x="0" id="text-entity-Guess-a0342822-8ef3-47eb-81e4-0c8065d5697e-attr-4-key" class="er entityLabel"/><rect height="22" width="47.21253967285156" y="90" x="142.6575469970703" class="er attributeBoxEven"/><text style="dominant-baseline: middle; font-size: 10.2px;" transform="translate(147.6575469970703,101)" y="0" x="0" id="text-entity-Guess-a0342822-8ef3-47eb-81e4-0c8065d5697e-attr-4-comment" class="er entityLabel">nullable</text><rect height="22" width="54.095550537109375" y="112" x="0" class="er attributeBoxOdd"/><text style="dominant-baseline: middle; font-size: 10.2px;" transform="translate(5,123)" y="0" x="0" id="text-entity-Guess-a0342822-8ef3-47eb-81e4-0c8065d5697e-attr-5-type" class="er entityLabel">DateTime</text><rect height="22" width="65.87431335449219" y="112" x="54.095550537109375" class="er attributeBoxOdd"/><text style="dominant-baseline: middle; font-size: 10.2px;" transform="translate(59.095550537109375,123)" y="0" x="0" id="text-entity-Guess-a0342822-8ef3-47eb-81e4-0c8065d5697e-attr-5-name" class="er entityLabel">createdAt</text><rect height="22" width="22.68768310546875" y="112" x="119.96986389160156" class="er attributeBoxOdd"/><text style="dominant-baseline: middle; font-size: 10.2px;" transform="translate(124.96986389160156,123)" y="0" x="0" id="text-entity-Guess-a0342822-8ef3-47eb-81e4-0c8065d5697e-attr-5-key" class="er entityLabel"/><rect height="22" width="47.21253967285156" y="112" x="142.6575469970703" class="er attributeBoxOdd"/><text style="dominant-baseline: middle; font-size: 10.2px;" transform="translate(147.6575469970703,123)" y="0" x="0" id="text-entity-Guess-a0342822-8ef3-47eb-81e4-0c8065d5697e-attr-5-comment" class="er entityLabel"/></g><g transform="translate(264.74937438964844,287 )" id="entity-Participant-59f187cf-c2ae-480d-99f6-11f62b63aa2c"><rect height="46" width="100" y="0" x="0" class="er entityBox"/><text style="dominant-baseline: middle; text-anchor: middle; font-size: 12px;" transform="translate(50,12)" y="0" x="0" id="text-entity-Participant-59f187cf-c2ae-480d-99f6-11f62b63aa2c" class="er entityLabel">Participant</text><rect height="22" width="44.39861551920573" y="24" x="0" class="er attributeBoxOdd"/><text style="dominant-baseline: middle; font-size: 10.2px;" transform="translate(5,35)" y="0" x="0" id="text-entity-Participant-59f187cf-c2ae-480d-99f6-11f62b63aa2c-attr-1-type" class="er entityLabel">String</text><rect height="22" width="25.911142985026043" y="24" x="44.39861551920573" class="er attributeBoxOdd"/><text style="dominant-baseline: middle; font-size: 10.2px;" transform="translate(49.39861551920573,35)" y="0" x="0" id="text-entity-Participant-59f187cf-c2ae-480d-99f6-11f62b63aa2c-attr-1-name" class="er entityLabel">id</text><rect height="22" width="29.69024149576823" y="24" x="70.30975850423177" class="er attributeBoxOdd"/><text style="dominant-baseline: middle; font-size: 10.2px;" transform="translate(75.30975850423177,35)" y="0" x="0" id="text-entity-Participant-59f187cf-c2ae-480d-99f6-11f62b63aa2c-attr-1-key" class="er entityLabel">PK</text></g><rect height="14" width="34.470703125" y="624.0775756835938" x="220.73854064941406" class="er relationshipLabelBox"/><text style="text-anchor: middle; dominant-baseline: middle; font-size: 12px;" y="631.0775756835938" x="237.97389221191406" id="rel1" class="er relationshipLabel">owner</text><rect height="14" width="59.744140625" y="207.03684997558594" x="278.4490966796875" class="er relationshipLabelBox"/><text style="text-anchor: middle; dominant-baseline: middle; font-size: 12px;" y="214.03684997558594" x="308.3211669921875" id="rel2" class="er relationshipLabel">participant</text><rect height="14" width="23.91015625" y="191.28431701660156" x="91.34903717041016" class="er relationshipLabelBox"/><text style="text-anchor: middle; dominant-baseline: middle; font-size: 12px;" y="198.28431701660156" x="103.30411529541016" id="rel3" class="er relationshipLabel">race</text><rect height="14" width="23.958984375" y="493.2481689453125" x="385.93194580078125" class="er relationshipLabelBox"/><text style="text-anchor: middle; dominant-baseline: middle; font-size: 12px;" y="500.2481689453125" x="397.91143798828125" id="rel4" class="er relationshipLabel">user</text><rect height="14" width="23.564453125" y="387.133056640625" x="239.8034210205078" class="er relationshipLabelBox"/><text style="text-anchor: middle; dominant-baseline: middle; font-size: 12px;" y="394.133056640625" x="251.5856475830078" id="rel5" class="er relationshipLabel">pool</text></svg>