<?xml version="1.0" standalone="no"?>
<!DOCTYPE svg PUBLIC "-//W3C//DTD SVG 20010904//EN"
 "http://www.w3.org/TR/2001/REC-SVG-20010904/DTD/svg10.dtd">
<svg version="1.0" xmlns="http://www.w3.org/2000/svg"
 width="976.000000pt" height="110.000000pt" viewBox="0 0 976.000000 110.000000"
 preserveAspectRatio="xMidYMid meet">

<g transform="translate(0.000000,110.000000) scale(0.100000,-0.100000)"
fill="#000000" stroke="none">
<path d="M10 555 l0 -545 145 0 145 0 0 205 0 205 285 0 285 0 0 120 0 120
-285 0 -285 0 0 100 0 100 285 0 285 0 0 120 0 120 -430 0 -430 0 0 -545z"/>
<path d="M5460 555 l0 -545 140 0 140 0 0 545 0 545 -140 0 -140 0 0 -545z"/>
<path d="M6940 555 l0 -547 363 4 c303 3 374 7 435 22 143 35 207 107 219 244
11 131 -30 208 -138 260 l-61 29 31 11 c56 20 93 54 118 110 22 48 25 64 21
141 -7 143 -58 206 -203 247 -50 14 -120 18 -422 21 l-363 5 0 -547z m649 320
c35 -17 41 -32 41 -96 0 -99 -22 -109 -241 -109 l-159 0 0 110 0 110 165 0
c126 0 173 -4 194 -15z m47 -458 c27 -31 33 -106 13 -151 -18 -39 -58 -46
-245 -46 l-174 0 0 116 0 115 191 -3 191 -3 24 -28z"/>
<path d="M9200 975 l0 -85 -70 0 -70 0 0 -105 0 -105 65 0 65 0 0 -218 c0
-245 9 -297 62 -358 64 -72 147 -94 360 -94 l138 0 0 105 0 105 -123 0 c-84 0
-129 4 -141 13 -27 20 -36 80 -36 270 l0 177 150 0 150 0 0 105 0 105 -150 0
-150 0 0 85 0 85 -125 0 -125 0 0 -85z"/>
<path d="M1293 885 c-124 -27 -210 -95 -262 -204 -24 -52 -26 -68 -29 -216 -3
-145 -1 -167 18 -218 41 -109 124 -189 233 -223 66 -20 272 -30 359 -16 198
31 308 149 330 353 33 302 -81 490 -319 529 -82 14 -257 11 -330 -5z m306
-210 c50 -25 61 -66 61 -225 0 -218 -17 -240 -190 -240 -173 0 -190 22 -190
240 0 218 16 239 188 240 71 0 112 -4 131 -15z"/>
<path d="M8362 889 c-84 -15 -147 -47 -197 -100 -79 -84 -89 -119 -93 -306 -3
-129 0 -174 13 -219 35 -120 94 -179 226 -226 59 -20 85 -22 352 -26 l287 -4
0 106 0 106 -255 0 c-322 0 -329 2 -349 118 l-5 32 314 0 315 0 0 101 c0 235
-68 353 -235 405 -60 19 -294 27 -373 13z m292 -200 c30 -14 56 -65 56 -108
l0 -31 -185 0 -185 0 6 43 c8 51 28 85 57 97 32 13 222 12 251 -1z"/>
<path d="M2327 879 c-95 -22 -163 -75 -210 -163 -21 -40 -22 -53 -25 -374 l-3
-332 135 0 135 0 3 311 3 311 28 24 c27 23 35 24 158 24 l129 0 0 105 0 105
-157 -1 c-87 -1 -175 -5 -196 -10z"/>
<path d="M2790 450 l0 -440 135 0 135 0 0 325 0 325 145 0 145 0 0 -325 0
-325 140 0 140 0 0 326 0 326 126 -4 c178 -4 164 25 164 -349 l0 -299 140 0
140 0 0 288 c0 312 -7 366 -54 446 -32 54 -76 90 -148 119 -52 22 -64 22 -630
25 l-578 3 0 -441z"/>
<path d="M4382 566 l3 -323 35 -69 c27 -53 46 -76 83 -101 81 -54 96 -56 450
-60 l327 -4 0 440 0 441 -140 0 -140 0 0 -325 0 -325 -144 0 c-139 0 -146 1
-173 24 l-28 24 -3 301 -3 301 -135 0 -135 0 3 -324z"/>
<path d="M5920 786 l0 -106 224 -2 224 -3 -162 -112 c-187 -130 -273 -204
-292 -250 -18 -42 -18 -147 0 -181 20 -38 65 -78 111 -99 36 -16 78 -18 388
-21 l348 -3 -3 303 -3 303 -28 60 c-33 70 -85 128 -142 157 -85 44 -129 50
-402 55 l-263 5 0 -106z m580 -421 l0 -145 -144 0 c-114 0 -146 3 -156 15 -6
8 -10 19 -8 25 2 8 298 250 306 250 1 0 2 -65 2 -145z"/>
</g>
</svg>
